# xmcd
#
# Track frame offsets:
#	150
#	18490
#	30089
#	43895
#	59133
#	73847
#	86701
#	105579
#	119428
#	136553
#	154804
#
# Disc length: 2239 seconds
#
# Revision: 0
# Processed by: cddbd v1.5.2PL0 Copyright (c) Steve Scherf et al.
# Submitted via: EasyCDDAExtractor 10.2.0.1
#
DISCID=9208bd0b
DTITLE=Various Artist - HMG Christian Country Vol.74
DYEAR=1900
DGENRE=
TTITLE0=Clifton Jansky - God's Way
TTITLE1=Kathy Bell - This Journey
TTITLE2=Tommy Brandt - No Turning Back
TTITLE3=Young Harmony - God Has Not Forgotten You
TTITLE4=David Davis - Through God Your Dreams Will All Come True
TTITLE5=Gary Dean - See The Light
TTITLE6=Glorification Singers - John The Revelator
TTITLE7=Tom Lanza - Ain't Going Back To Egypt
TTITLE8=Judy Lange - The Greatest Love
TTITLE9=Lance Main - He Had Her Heart, I had Her Hand
TTITLE10=Gene Snow - Glory Train
EXTD=
EXTT0=
EXTT1=
EXTT2=
EXTT3=
EXTT4=
EXTT5=
EXTT6=
EXTT7=
EXTT8=
EXTT9=
EXTT10=
PLAYORDER=
